<mxfile host="Electron" modified="2023-11-14T18:05:31.869Z" agent="Mozilla/5.0 (Windows NT 10.0; Win64; x64) AppleWebKit/537.36 (KHTML, like Gecko) draw.io/22.0.3 Chrome/114.0.5735.289 Electron/25.8.4 Safari/537.36" etag="By5t_VkJ9bvdody0X2cu" version="22.0.3" type="device">
  <diagram id="C5RBs43oDa-KdzZeNtuy" name="Page-1">
    <mxGraphModel dx="797" dy="466" grid="1" gridSize="10" guides="1" tooltips="1" connect="1" arrows="1" fold="1" page="1" pageScale="1" pageWidth="827" pageHeight="1169" math="0" shadow="0">
      <root>
        <mxCell id="WIyWlLk6GJQsqaUBKTNV-0" />
        <mxCell id="WIyWlLk6GJQsqaUBKTNV-1" parent="WIyWlLk6GJQsqaUBKTNV-0" />
        <mxCell id="sKyEI40k2Y5IoA3rtuJI-8" value="" style="swimlane;startSize=0;fontStyle=0" parent="WIyWlLk6GJQsqaUBKTNV-1" vertex="1">
          <mxGeometry x="370" y="170" width="1450" height="370" as="geometry" />
        </mxCell>
        <mxCell id="sKyEI40k2Y5IoA3rtuJI-10" value="&lt;font style=&quot;font-size: 18px;&quot;&gt;Queue Service&lt;/font&gt;" style="text;html=1;strokeColor=none;fillColor=none;align=center;verticalAlign=middle;whiteSpace=wrap;rounded=0;labelBorderColor=none;fontStyle=1" parent="sKyEI40k2Y5IoA3rtuJI-8" vertex="1">
          <mxGeometry x="380" y="10" width="160" height="40" as="geometry" />
        </mxCell>
        <mxCell id="cS7-RgSccxMJ9TShwJvT-7" value="Controllers" style="text;html=1;strokeColor=none;fillColor=none;align=center;verticalAlign=middle;whiteSpace=wrap;rounded=0;fontSize=16;" parent="sKyEI40k2Y5IoA3rtuJI-8" vertex="1">
          <mxGeometry x="300" y="50" width="100" height="30" as="geometry" />
        </mxCell>
        <mxCell id="cS7-RgSccxMJ9TShwJvT-17" value="&lt;b&gt;SocketController&lt;/b&gt;" style="swimlane;fontStyle=0;childLayout=stackLayout;horizontal=1;startSize=30;horizontalStack=0;resizeParent=1;resizeParentMax=0;resizeLast=0;collapsible=1;marginBottom=0;whiteSpace=wrap;html=1;" parent="sKyEI40k2Y5IoA3rtuJI-8" vertex="1">
          <mxGeometry x="240" y="80" width="235" height="90" as="geometry" />
        </mxCell>
        <mxCell id="cS7-RgSccxMJ9TShwJvT-18" value="handleConnection(Socket): void" style="text;strokeColor=none;fillColor=none;align=left;verticalAlign=middle;spacingLeft=4;spacingRight=4;overflow=hidden;points=[[0,0.5],[1,0.5]];portConstraint=eastwest;rotatable=0;whiteSpace=wrap;html=1;" parent="cS7-RgSccxMJ9TShwJvT-17" vertex="1">
          <mxGeometry y="30" width="235" height="30" as="geometry" />
        </mxCell>
        <mxCell id="IA3DyXrsidl_7jApcfY7-1" value="handleDisconnect(Socket, number): void" style="text;strokeColor=none;fillColor=none;align=left;verticalAlign=middle;spacingLeft=4;spacingRight=4;overflow=hidden;points=[[0,0.5],[1,0.5]];portConstraint=eastwest;rotatable=0;whiteSpace=wrap;html=1;" parent="cS7-RgSccxMJ9TShwJvT-17" vertex="1">
          <mxGeometry y="60" width="235" height="30" as="geometry" />
        </mxCell>
        <mxCell id="cS7-RgSccxMJ9TShwJvT-32" value="Services" style="text;html=1;strokeColor=none;fillColor=none;align=center;verticalAlign=middle;whiteSpace=wrap;rounded=0;fontSize=16;" parent="sKyEI40k2Y5IoA3rtuJI-8" vertex="1">
          <mxGeometry x="670" y="90" width="100" height="30" as="geometry" />
        </mxCell>
        <mxCell id="cS7-RgSccxMJ9TShwJvT-61" value="SocketIO" style="swimlane;fontStyle=0;childLayout=stackLayout;horizontal=1;startSize=30;horizontalStack=0;resizeParent=1;resizeParentMax=0;resizeLast=0;collapsible=1;marginBottom=0;whiteSpace=wrap;html=1;" parent="sKyEI40k2Y5IoA3rtuJI-8" vertex="1">
          <mxGeometry x="30" y="95" width="140" height="180" as="geometry" />
        </mxCell>
        <mxCell id="cS7-RgSccxMJ9TShwJvT-62" value="connection" style="text;strokeColor=none;fillColor=none;align=left;verticalAlign=middle;spacingLeft=4;spacingRight=4;overflow=hidden;points=[[0,0.5],[1,0.5]];portConstraint=eastwest;rotatable=0;whiteSpace=wrap;html=1;" parent="cS7-RgSccxMJ9TShwJvT-61" vertex="1">
          <mxGeometry y="30" width="140" height="30" as="geometry" />
        </mxCell>
        <mxCell id="cS7-RgSccxMJ9TShwJvT-64" value="connected" style="text;strokeColor=none;fillColor=none;align=left;verticalAlign=middle;spacingLeft=4;spacingRight=4;overflow=hidden;points=[[0,0.5],[1,0.5]];portConstraint=eastwest;rotatable=0;whiteSpace=wrap;html=1;" parent="cS7-RgSccxMJ9TShwJvT-61" vertex="1">
          <mxGeometry y="60" width="140" height="30" as="geometry" />
        </mxCell>
        <mxCell id="cS7-RgSccxMJ9TShwJvT-63" value="matching" style="text;strokeColor=none;fillColor=none;align=left;verticalAlign=middle;spacingLeft=4;spacingRight=4;overflow=hidden;points=[[0,0.5],[1,0.5]];portConstraint=eastwest;rotatable=0;whiteSpace=wrap;html=1;" parent="cS7-RgSccxMJ9TShwJvT-61" vertex="1">
          <mxGeometry y="90" width="140" height="30" as="geometry" />
        </mxCell>
        <mxCell id="cS7-RgSccxMJ9TShwJvT-66" value="matched" style="text;strokeColor=none;fillColor=none;align=left;verticalAlign=middle;spacingLeft=4;spacingRight=4;overflow=hidden;points=[[0,0.5],[1,0.5]];portConstraint=eastwest;rotatable=0;whiteSpace=wrap;html=1;" parent="cS7-RgSccxMJ9TShwJvT-61" vertex="1">
          <mxGeometry y="120" width="140" height="30" as="geometry" />
        </mxCell>
        <mxCell id="IA3DyXrsidl_7jApcfY7-2" value="timeout" style="text;strokeColor=none;fillColor=none;align=left;verticalAlign=middle;spacingLeft=4;spacingRight=4;overflow=hidden;points=[[0,0.5],[1,0.5]];portConstraint=eastwest;rotatable=0;whiteSpace=wrap;html=1;" parent="cS7-RgSccxMJ9TShwJvT-61" vertex="1">
          <mxGeometry y="150" width="140" height="30" as="geometry" />
        </mxCell>
        <mxCell id="cS7-RgSccxMJ9TShwJvT-65" value="Websockets" style="text;html=1;strokeColor=none;fillColor=none;align=center;verticalAlign=middle;whiteSpace=wrap;rounded=0;fontSize=16;" parent="sKyEI40k2Y5IoA3rtuJI-8" vertex="1">
          <mxGeometry x="65" y="60" width="70" height="30" as="geometry" />
        </mxCell>
        <mxCell id="IA3DyXrsidl_7jApcfY7-3" value="&lt;b&gt;Queue&lt;/b&gt;" style="swimlane;fontStyle=0;childLayout=stackLayout;horizontal=1;startSize=30;horizontalStack=0;resizeParent=1;resizeParentMax=0;resizeLast=0;collapsible=1;marginBottom=0;whiteSpace=wrap;html=1;" parent="sKyEI40k2Y5IoA3rtuJI-8" vertex="1">
          <mxGeometry x="900" y="120" width="290" height="196" as="geometry" />
        </mxCell>
        <mxCell id="6lyvd6g7CeZMoziROOqz-48" value="nameSpace: string&lt;br&gt;socketMap: Map&amp;lt;number, Socket&amp;gt;" style="rounded=0;whiteSpace=wrap;html=1;align=left;" vertex="1" parent="IA3DyXrsidl_7jApcfY7-3">
          <mxGeometry y="30" width="290" height="36" as="geometry" />
        </mxCell>
        <mxCell id="IA3DyXrsidl_7jApcfY7-4" value="attemptToMatchUsers(number, Socket): void" style="text;strokeColor=none;fillColor=none;align=left;verticalAlign=middle;spacingLeft=4;spacingRight=4;overflow=hidden;points=[[0,0.5],[1,0.5]];portConstraint=eastwest;rotatable=0;whiteSpace=wrap;html=1;" parent="IA3DyXrsidl_7jApcfY7-3" vertex="1">
          <mxGeometry y="66" width="290" height="26" as="geometry" />
        </mxCell>
        <mxCell id="IA3DyXrsidl_7jApcfY7-14" value="checkAndReleaseOtherConnection(number): void" style="text;strokeColor=none;fillColor=none;align=left;verticalAlign=middle;spacingLeft=4;spacingRight=4;overflow=hidden;points=[[0,0.5],[1,0.5]];portConstraint=eastwest;rotatable=0;whiteSpace=wrap;html=1;" parent="IA3DyXrsidl_7jApcfY7-3" vertex="1">
          <mxGeometry y="92" width="290" height="26" as="geometry" />
        </mxCell>
        <mxCell id="IA3DyXrsidl_7jApcfY7-15" value="matchUsers(number uid): void" style="text;strokeColor=none;fillColor=none;align=left;verticalAlign=middle;spacingLeft=4;spacingRight=4;overflow=hidden;points=[[0,0.5],[1,0.5]];portConstraint=eastwest;rotatable=0;whiteSpace=wrap;html=1;" parent="IA3DyXrsidl_7jApcfY7-3" vertex="1">
          <mxGeometry y="118" width="290" height="26" as="geometry" />
        </mxCell>
        <mxCell id="IA3DyXrsidl_7jApcfY7-17" value="cleanup(number): void" style="text;strokeColor=none;fillColor=none;align=left;verticalAlign=middle;spacingLeft=4;spacingRight=4;overflow=hidden;points=[[0,0.5],[1,0.5]];portConstraint=eastwest;rotatable=0;whiteSpace=wrap;html=1;" parent="IA3DyXrsidl_7jApcfY7-3" vertex="1">
          <mxGeometry y="144" width="290" height="26" as="geometry" />
        </mxCell>
        <mxCell id="IA3DyXrsidl_7jApcfY7-16" value="generateSession(number, number): string" style="text;strokeColor=none;fillColor=none;align=left;verticalAlign=middle;spacingLeft=4;spacingRight=4;overflow=hidden;points=[[0,0.5],[1,0.5]];portConstraint=eastwest;rotatable=0;whiteSpace=wrap;html=1;" parent="IA3DyXrsidl_7jApcfY7-3" vertex="1">
          <mxGeometry y="170" width="290" height="26" as="geometry" />
        </mxCell>
        <mxCell id="IA3DyXrsidl_7jApcfY7-5" value="Queues" style="text;html=1;strokeColor=none;fillColor=none;align=center;verticalAlign=middle;whiteSpace=wrap;rounded=0;fontSize=16;" parent="sKyEI40k2Y5IoA3rtuJI-8" vertex="1">
          <mxGeometry x="1030" y="95" width="100" height="30" as="geometry" />
        </mxCell>
        <mxCell id="IA3DyXrsidl_7jApcfY7-6" value="QueueService" style="swimlane;fontStyle=1;align=center;verticalAlign=top;childLayout=stackLayout;horizontal=1;startSize=26;horizontalStack=0;resizeParent=1;resizeParentMax=0;resizeLast=0;collapsible=1;marginBottom=0;whiteSpace=wrap;html=1;" parent="sKyEI40k2Y5IoA3rtuJI-8" vertex="1">
          <mxGeometry x="560" y="127" width="290" height="138" as="geometry" />
        </mxCell>
        <mxCell id="IA3DyXrsidl_7jApcfY7-7" value="queues: Map&amp;lt;string, Queue&amp;gt;" style="text;strokeColor=none;fillColor=none;align=left;verticalAlign=top;spacingLeft=4;spacingRight=4;overflow=hidden;rotatable=0;points=[[0,0.5],[1,0.5]];portConstraint=eastwest;whiteSpace=wrap;html=1;" parent="IA3DyXrsidl_7jApcfY7-6" vertex="1">
          <mxGeometry y="26" width="290" height="26" as="geometry" />
        </mxCell>
        <mxCell id="IA3DyXrsidl_7jApcfY7-8" value="" style="line;strokeWidth=1;fillColor=none;align=left;verticalAlign=middle;spacingTop=-1;spacingLeft=3;spacingRight=3;rotatable=0;labelPosition=right;points=[];portConstraint=eastwest;strokeColor=inherit;" parent="IA3DyXrsidl_7jApcfY7-6" vertex="1">
          <mxGeometry y="52" width="290" height="8" as="geometry" />
        </mxCell>
        <mxCell id="IA3DyXrsidl_7jApcfY7-9" value="attemptToMatchUsers(string, number, Socket): void" style="text;strokeColor=none;fillColor=none;align=left;verticalAlign=top;spacingLeft=4;spacingRight=4;overflow=hidden;rotatable=0;points=[[0,0.5],[1,0.5]];portConstraint=eastwest;whiteSpace=wrap;html=1;" parent="IA3DyXrsidl_7jApcfY7-6" vertex="1">
          <mxGeometry y="60" width="290" height="26" as="geometry" />
        </mxCell>
        <mxCell id="IA3DyXrsidl_7jApcfY7-11" value="checkAndReleaseOtherConnections(number): void" style="text;strokeColor=none;fillColor=none;align=left;verticalAlign=top;spacingLeft=4;spacingRight=4;overflow=hidden;rotatable=0;points=[[0,0.5],[1,0.5]];portConstraint=eastwest;whiteSpace=wrap;html=1;" parent="IA3DyXrsidl_7jApcfY7-6" vertex="1">
          <mxGeometry y="86" width="290" height="26" as="geometry" />
        </mxCell>
        <mxCell id="IA3DyXrsidl_7jApcfY7-12" value="cleanUp(number): void" style="text;strokeColor=none;fillColor=none;align=left;verticalAlign=top;spacingLeft=4;spacingRight=4;overflow=hidden;rotatable=0;points=[[0,0.5],[1,0.5]];portConstraint=eastwest;whiteSpace=wrap;html=1;" parent="IA3DyXrsidl_7jApcfY7-6" vertex="1">
          <mxGeometry y="112" width="290" height="26" as="geometry" />
        </mxCell>
        <mxCell id="6lyvd6g7CeZMoziROOqz-0" value="&lt;b&gt;Producer&lt;/b&gt;" style="swimlane;fontStyle=0;childLayout=stackLayout;horizontal=1;startSize=30;horizontalStack=0;resizeParent=1;resizeParentMax=0;resizeLast=0;collapsible=1;marginBottom=0;whiteSpace=wrap;html=1;" vertex="1" parent="sKyEI40k2Y5IoA3rtuJI-8">
          <mxGeometry x="1240" y="155" width="190" height="60" as="geometry" />
        </mxCell>
        <mxCell id="6lyvd6g7CeZMoziROOqz-1" value="produceMessage(string): void" style="text;strokeColor=none;fillColor=none;align=left;verticalAlign=middle;spacingLeft=4;spacingRight=4;overflow=hidden;points=[[0,0.5],[1,0.5]];portConstraint=eastwest;rotatable=0;whiteSpace=wrap;html=1;" vertex="1" parent="6lyvd6g7CeZMoziROOqz-0">
          <mxGeometry y="30" width="190" height="30" as="geometry" />
        </mxCell>
        <mxCell id="6lyvd6g7CeZMoziROOqz-8" value="&lt;b&gt;Consumer&lt;/b&gt;" style="swimlane;fontStyle=0;childLayout=stackLayout;horizontal=1;startSize=30;horizontalStack=0;resizeParent=1;resizeParentMax=0;resizeLast=0;collapsible=1;marginBottom=0;whiteSpace=wrap;html=1;" vertex="1" parent="sKyEI40k2Y5IoA3rtuJI-8">
          <mxGeometry x="1240" y="240" width="190" height="60" as="geometry" />
        </mxCell>
        <mxCell id="6lyvd6g7CeZMoziROOqz-9" value="onMessage: (msg: number) =&amp;gt; Promise&amp;lt;void&amp;gt;" style="text;strokeColor=none;fillColor=none;align=left;verticalAlign=middle;spacingLeft=4;spacingRight=4;overflow=hidden;points=[[0,0.5],[1,0.5]];portConstraint=eastwest;rotatable=0;whiteSpace=wrap;html=1;" vertex="1" parent="6lyvd6g7CeZMoziROOqz-8">
          <mxGeometry y="30" width="190" height="30" as="geometry" />
        </mxCell>
        <mxCell id="6lyvd6g7CeZMoziROOqz-18" style="edgeStyle=orthogonalEdgeStyle;rounded=0;orthogonalLoop=1;jettySize=auto;html=1;entryX=0;entryY=0.5;entryDx=0;entryDy=0;" edge="1" parent="sKyEI40k2Y5IoA3rtuJI-8" source="cS7-RgSccxMJ9TShwJvT-62" target="cS7-RgSccxMJ9TShwJvT-18">
          <mxGeometry relative="1" as="geometry">
            <Array as="points">
              <mxPoint x="220" y="140" />
              <mxPoint x="220" y="140" />
            </Array>
          </mxGeometry>
        </mxCell>
        <mxCell id="6lyvd6g7CeZMoziROOqz-19" style="edgeStyle=orthogonalEdgeStyle;rounded=0;orthogonalLoop=1;jettySize=auto;html=1;entryX=1;entryY=0.5;entryDx=0;entryDy=0;exitX=1;exitY=0.5;exitDx=0;exitDy=0;" edge="1" parent="sKyEI40k2Y5IoA3rtuJI-8" source="cS7-RgSccxMJ9TShwJvT-18" target="cS7-RgSccxMJ9TShwJvT-64">
          <mxGeometry relative="1" as="geometry">
            <Array as="points">
              <mxPoint x="475" y="140" />
              <mxPoint x="510" y="140" />
              <mxPoint x="510" y="180" />
              <mxPoint x="220" y="180" />
              <mxPoint x="220" y="170" />
            </Array>
          </mxGeometry>
        </mxCell>
        <mxCell id="6lyvd6g7CeZMoziROOqz-27" style="edgeStyle=orthogonalEdgeStyle;rounded=0;orthogonalLoop=1;jettySize=auto;html=1;entryX=0;entryY=0.5;entryDx=0;entryDy=0;" edge="1" parent="sKyEI40k2Y5IoA3rtuJI-8" source="cS7-RgSccxMJ9TShwJvT-63" target="IA3DyXrsidl_7jApcfY7-9">
          <mxGeometry relative="1" as="geometry" />
        </mxCell>
        <mxCell id="6lyvd6g7CeZMoziROOqz-28" style="edgeStyle=orthogonalEdgeStyle;rounded=0;orthogonalLoop=1;jettySize=auto;html=1;entryX=0;entryY=0.5;entryDx=0;entryDy=0;" edge="1" parent="sKyEI40k2Y5IoA3rtuJI-8" source="IA3DyXrsidl_7jApcfY7-9" target="IA3DyXrsidl_7jApcfY7-4">
          <mxGeometry relative="1" as="geometry" />
        </mxCell>
        <mxCell id="6lyvd6g7CeZMoziROOqz-30" style="edgeStyle=orthogonalEdgeStyle;rounded=0;orthogonalLoop=1;jettySize=auto;html=1;entryX=0;entryY=0.5;entryDx=0;entryDy=0;" edge="1" parent="sKyEI40k2Y5IoA3rtuJI-8" source="IA3DyXrsidl_7jApcfY7-11" target="IA3DyXrsidl_7jApcfY7-14">
          <mxGeometry relative="1" as="geometry" />
        </mxCell>
        <mxCell id="6lyvd6g7CeZMoziROOqz-31" style="edgeStyle=orthogonalEdgeStyle;rounded=0;orthogonalLoop=1;jettySize=auto;html=1;" edge="1" parent="sKyEI40k2Y5IoA3rtuJI-8" source="IA3DyXrsidl_7jApcfY7-4" target="6lyvd6g7CeZMoziROOqz-1">
          <mxGeometry relative="1" as="geometry" />
        </mxCell>
        <mxCell id="6lyvd6g7CeZMoziROOqz-32" style="edgeStyle=orthogonalEdgeStyle;rounded=0;orthogonalLoop=1;jettySize=auto;html=1;entryX=1.001;entryY=0.232;entryDx=0;entryDy=0;entryPerimeter=0;" edge="1" parent="sKyEI40k2Y5IoA3rtuJI-8" source="6lyvd6g7CeZMoziROOqz-9" target="IA3DyXrsidl_7jApcfY7-15">
          <mxGeometry relative="1" as="geometry" />
        </mxCell>
        <mxCell id="6lyvd6g7CeZMoziROOqz-35" style="edgeStyle=orthogonalEdgeStyle;rounded=0;orthogonalLoop=1;jettySize=auto;html=1;entryX=0;entryY=0.5;entryDx=0;entryDy=0;" edge="1" parent="sKyEI40k2Y5IoA3rtuJI-8" source="IA3DyXrsidl_7jApcfY7-12" target="IA3DyXrsidl_7jApcfY7-17">
          <mxGeometry relative="1" as="geometry" />
        </mxCell>
        <mxCell id="6lyvd6g7CeZMoziROOqz-36" style="edgeStyle=orthogonalEdgeStyle;rounded=0;orthogonalLoop=1;jettySize=auto;html=1;" edge="1" parent="sKyEI40k2Y5IoA3rtuJI-8" target="cS7-RgSccxMJ9TShwJvT-66">
          <mxGeometry relative="1" as="geometry">
            <mxPoint x="900" y="260" as="sourcePoint" />
            <Array as="points">
              <mxPoint x="860" y="260" />
              <mxPoint x="860" y="300" />
              <mxPoint x="530" y="300" />
              <mxPoint x="530" y="230" />
            </Array>
          </mxGeometry>
        </mxCell>
        <mxCell id="6lyvd6g7CeZMoziROOqz-16" style="edgeStyle=orthogonalEdgeStyle;rounded=0;orthogonalLoop=1;jettySize=auto;html=1;entryX=0;entryY=0.5;entryDx=0;entryDy=0;" edge="1" parent="WIyWlLk6GJQsqaUBKTNV-1" source="sKyEI40k2Y5IoA3rtuJI-125" target="cS7-RgSccxMJ9TShwJvT-62">
          <mxGeometry relative="1" as="geometry">
            <Array as="points">
              <mxPoint x="230" y="310" />
              <mxPoint x="230" y="310" />
            </Array>
          </mxGeometry>
        </mxCell>
        <mxCell id="6lyvd6g7CeZMoziROOqz-17" value="Start queuing" style="edgeLabel;html=1;align=center;verticalAlign=middle;resizable=0;points=[];" vertex="1" connectable="0" parent="6lyvd6g7CeZMoziROOqz-16">
          <mxGeometry x="0.1336" y="-5" relative="1" as="geometry">
            <mxPoint x="-15" y="-5" as="offset" />
          </mxGeometry>
        </mxCell>
        <mxCell id="6lyvd6g7CeZMoziROOqz-22" style="edgeStyle=orthogonalEdgeStyle;rounded=0;orthogonalLoop=1;jettySize=auto;html=1;entryX=0;entryY=0.5;entryDx=0;entryDy=0;" edge="1" parent="WIyWlLk6GJQsqaUBKTNV-1" source="sKyEI40k2Y5IoA3rtuJI-125" target="cS7-RgSccxMJ9TShwJvT-63">
          <mxGeometry relative="1" as="geometry">
            <Array as="points">
              <mxPoint x="240" y="370" />
              <mxPoint x="240" y="370" />
            </Array>
          </mxGeometry>
        </mxCell>
        <mxCell id="6lyvd6g7CeZMoziROOqz-23" value="Start Matching" style="edgeLabel;html=1;align=center;verticalAlign=middle;resizable=0;points=[];" vertex="1" connectable="0" parent="6lyvd6g7CeZMoziROOqz-22">
          <mxGeometry x="-0.1439" y="2" relative="1" as="geometry">
            <mxPoint x="16" y="2" as="offset" />
          </mxGeometry>
        </mxCell>
        <mxCell id="sKyEI40k2Y5IoA3rtuJI-125" value="Frontend" style="rounded=1;whiteSpace=wrap;html=1;" parent="WIyWlLk6GJQsqaUBKTNV-1" vertex="1">
          <mxGeometry x="111" y="280" width="120" height="230" as="geometry" />
        </mxCell>
        <mxCell id="6lyvd6g7CeZMoziROOqz-14" style="edgeStyle=orthogonalEdgeStyle;rounded=0;orthogonalLoop=1;jettySize=auto;html=1;exitX=0.5;exitY=1;exitDx=0;exitDy=0;exitPerimeter=0;entryX=1;entryY=0.5;entryDx=0;entryDy=0;" edge="1" parent="WIyWlLk6GJQsqaUBKTNV-1" source="6lyvd6g7CeZMoziROOqz-6" target="6lyvd6g7CeZMoziROOqz-9">
          <mxGeometry relative="1" as="geometry">
            <Array as="points">
              <mxPoint x="1875" y="455" />
            </Array>
          </mxGeometry>
        </mxCell>
        <mxCell id="6lyvd6g7CeZMoziROOqz-6" value="" style="shape=cylinder3;whiteSpace=wrap;html=1;boundedLbl=1;backgroundOutline=1;size=15;" vertex="1" parent="WIyWlLk6GJQsqaUBKTNV-1">
          <mxGeometry x="1845" y="380" width="60" height="68.5" as="geometry" />
        </mxCell>
        <mxCell id="6lyvd6g7CeZMoziROOqz-10" value="" style="shape=image;verticalLabelPosition=bottom;labelBackgroundColor=default;verticalAlign=top;aspect=fixed;imageAspect=0;image=https://upload.wikimedia.org/wikipedia/commons/thumb/7/71/RabbitMQ_logo.svg/2560px-RabbitMQ_logo.svg.png;" vertex="1" parent="WIyWlLk6GJQsqaUBKTNV-1">
          <mxGeometry x="1840" y="414.52" width="70" height="10.97" as="geometry" />
        </mxCell>
        <mxCell id="6lyvd6g7CeZMoziROOqz-13" style="edgeStyle=orthogonalEdgeStyle;rounded=0;orthogonalLoop=1;jettySize=auto;html=1;" edge="1" parent="WIyWlLk6GJQsqaUBKTNV-1" source="6lyvd6g7CeZMoziROOqz-1" target="6lyvd6g7CeZMoziROOqz-6">
          <mxGeometry relative="1" as="geometry">
            <Array as="points">
              <mxPoint x="1875" y="370" />
            </Array>
          </mxGeometry>
        </mxCell>
        <mxCell id="6lyvd6g7CeZMoziROOqz-20" style="edgeStyle=orthogonalEdgeStyle;rounded=0;orthogonalLoop=1;jettySize=auto;html=1;exitX=0;exitY=0.5;exitDx=0;exitDy=0;entryX=1;entryY=0.25;entryDx=0;entryDy=0;" edge="1" parent="WIyWlLk6GJQsqaUBKTNV-1" source="cS7-RgSccxMJ9TShwJvT-64" target="sKyEI40k2Y5IoA3rtuJI-125">
          <mxGeometry relative="1" as="geometry">
            <mxPoint x="180" y="340" as="targetPoint" />
            <Array as="points">
              <mxPoint x="400" y="338" />
              <mxPoint x="305" y="338" />
            </Array>
          </mxGeometry>
        </mxCell>
        <mxCell id="6lyvd6g7CeZMoziROOqz-21" value="Confirm connection" style="edgeLabel;html=1;align=center;verticalAlign=middle;resizable=0;points=[];" vertex="1" connectable="0" parent="6lyvd6g7CeZMoziROOqz-20">
          <mxGeometry x="-0.1986" y="-5" relative="1" as="geometry">
            <mxPoint x="-13" y="3" as="offset" />
          </mxGeometry>
        </mxCell>
        <mxCell id="6lyvd6g7CeZMoziROOqz-37" style="edgeStyle=orthogonalEdgeStyle;rounded=0;orthogonalLoop=1;jettySize=auto;html=1;exitX=0;exitY=0.5;exitDx=0;exitDy=0;" edge="1" parent="WIyWlLk6GJQsqaUBKTNV-1" source="cS7-RgSccxMJ9TShwJvT-66" target="sKyEI40k2Y5IoA3rtuJI-125">
          <mxGeometry relative="1" as="geometry">
            <mxPoint x="180" y="400" as="targetPoint" />
            <Array as="points">
              <mxPoint x="260" y="400" />
              <mxPoint x="260" y="400" />
            </Array>
          </mxGeometry>
        </mxCell>
        <mxCell id="6lyvd6g7CeZMoziROOqz-39" value="Matched Users" style="edgeLabel;html=1;align=center;verticalAlign=middle;resizable=0;points=[];" vertex="1" connectable="0" parent="6lyvd6g7CeZMoziROOqz-37">
          <mxGeometry x="0.0348" y="-6" relative="1" as="geometry">
            <mxPoint y="6" as="offset" />
          </mxGeometry>
        </mxCell>
        <mxCell id="6lyvd6g7CeZMoziROOqz-40" style="edgeStyle=orthogonalEdgeStyle;rounded=0;orthogonalLoop=1;jettySize=auto;html=1;entryX=1.014;entryY=0.649;entryDx=0;entryDy=0;entryPerimeter=0;" edge="1" parent="WIyWlLk6GJQsqaUBKTNV-1" source="IA3DyXrsidl_7jApcfY7-2" target="sKyEI40k2Y5IoA3rtuJI-125">
          <mxGeometry relative="1" as="geometry" />
        </mxCell>
        <mxCell id="6lyvd6g7CeZMoziROOqz-41" value="After 30 seconds, disconnect" style="edgeLabel;html=1;align=center;verticalAlign=middle;resizable=0;points=[];" vertex="1" connectable="0" parent="6lyvd6g7CeZMoziROOqz-40">
          <mxGeometry x="0.0381" y="-2" relative="1" as="geometry">
            <mxPoint y="3" as="offset" />
          </mxGeometry>
        </mxCell>
        <mxCell id="6lyvd6g7CeZMoziROOqz-44" value="Session Service" style="rounded=1;whiteSpace=wrap;html=1;" vertex="1" parent="WIyWlLk6GJQsqaUBKTNV-1">
          <mxGeometry x="1520" y="585" width="120" height="60" as="geometry" />
        </mxCell>
        <mxCell id="6lyvd6g7CeZMoziROOqz-45" style="edgeStyle=orthogonalEdgeStyle;rounded=0;orthogonalLoop=1;jettySize=auto;html=1;" edge="1" parent="WIyWlLk6GJQsqaUBKTNV-1" source="IA3DyXrsidl_7jApcfY7-16" target="6lyvd6g7CeZMoziROOqz-44">
          <mxGeometry relative="1" as="geometry" />
        </mxCell>
      </root>
    </mxGraphModel>
  </diagram>
</mxfile>
